<svg xmlns="http://www.w3.org/2000/svg" viewBox="0 0 612.56 612.56"><defs><style>.cls-1{fill:#39a900;}.cls-2{fill:#ffce40;}.cls-3{fill:#385c57;}.cls-4{font-size:40.82px;}.cls-4,.cls-5,.cls-6{font-family:ArialRoundedMTBold, Arial Rounded MT Bold;}.cls-5{font-size:38.66px;}.cls-6{font-size:36.28px;}.cls-7{fill:none;stroke:#39a900;stroke-miterlimit:10;stroke-width:11px;}</style></defs><g id="Capa_2" data-name="Capa 2"><g id="Capa_1-2" data-name="Capa 1"><path class="cls-1" d="M386.72,349.49l-43.07,14.56c.37-4.29-.75-8.41-1.63-12.53-3.34-15.7-11-28.81-23.62-38.9-14.39-11.46-31-15.51-49-14.78l-46.16-.09c8.33-27.67,25.14-48.81,49.69-63.8,18-11,37.68-16.13,58.76-16,10.76.05,21.53-.08,32.29.08,2.63,0,3.66-.91,4.43-3.28q9-28,18.3-55.95a18.21,18.21,0,0,0,.81-5.86q0-38.05.06-76.1h4.79a5.46,5.46,0,0,0,1.23.79c13.94,4.59,20.36,13.43,20.39,28.13,0,7.56.13,15.12-.06,22.67-.07,2.86.88,3.7,3.61,3.5,3-.23,6.1-.1,9.15-.12l27,.09c6.27,6.12,12.58,12.2,18.79,18.38a5.37,5.37,0,0,0,4.28,1.55c5.45-.06,10.9.11,16.34-.07,2.5-.09,3.17.74,3.11,3.16q-.22,10.16,0,20.31c.05,2.46-.65,3.4-3.22,3.81-15.31,2.45-30.57,5.28-45.9,7.59-3.49.53-3.84,2-3.83,4.87q.12,50.21.05,100.39c0,.93-.05,1.86-.07,2.78a16.63,16.63,0,0,0-.51,2.28c-1.49,18.47-10.72,32-26.38,41.49,0-4.52-.09-9,.05-13.54.08-2.44-.8-3.26-3.22-3.21-6.1.13-12.23-.18-18.32.12-3.75.19-5-.81-4.95-4.76.23-14.46,0-28.93.15-43.4,0-2.95-.79-3.94-3.81-3.85-6.76.2-13.54.12-20.31,0-2.18,0-3.14.63-3.07,2.94.49,17.35-.85,34.73.77,52.07a26,26,0,0,0,18.91,22.57C383.89,347.77,386.15,347.14,386.72,349.49Z"/><path class="cls-2" d="M223.19,297.75l46.17.09a38.09,38.09,0,0,1-.86,3.84c-6.13,18.49-3.15,35.87,7.38,51.81A56.88,56.88,0,0,0,312,378.25c3.73.84,4.76,2.35,4.66,6.07-.29,9.94-.1,19.89-.1,29.84-19.67,0-39.35.09-59,0-3.16,0-4,.91-4.07,4-.84,32.47-27.95,62.11-60.34,66.3a105.17,105.17,0,0,1-13.5.78H87.43v-35.9c11.3.06,22.6.16,33.9.15,21.54,0,43.09.15,64.63-.22,15.41-.26,30.12-14.79,31.71-30.16a144.51,144.51,0,0,0,.6-14.7c0-26.58-.07-53.16.15-79.73A86.54,86.54,0,0,1,223.19,297.75Z"/><path class="cls-3" d="M453.61,131.87l-27-.09v-55h4.79c5.49,1.91,10.84,4,14.9,8.46a28.43,28.43,0,0,1,7.3,19.21C453.8,113.61,453.63,122.74,453.61,131.87Z"/><path class="cls-3" d="M316.51,414.16c0-10-.19-19.9.1-29.84.1-3.72-.93-5.23-4.66-6.07a56.88,56.88,0,0,1-36.07-24.76c-10.53-15.94-13.51-33.32-7.38-51.81a38.09,38.09,0,0,0,.86-3.84c18.05-.73,34.65,3.32,49,14.78,12.66,10.09,20.28,23.2,23.62,38.9.88,4.12,2,8.24,1.63,12.53,0,30.57,0,61.15-.18,91.72,0,3.11,1.68,3,3.81,3,22.74,0,45.48,0,68.23,0,11.34,0,19.58,5,24.8,14.94a23.14,23.14,0,0,1,2.39,7.95c.33,2.77-.51,3.71-3.39,3.66-8.64-.17-17.29-.06-25.94-.06-30.72,0-61.45-.06-92.17.07-3.52,0-4.73-.72-4.7-4.52C316.67,458.56,316.54,436.36,316.51,414.16Z"/><path class="cls-2" d="M386.72,349.49c-.57-2.35-2.83-1.72-4.25-2.11a26,26,0,0,1-18.91-22.57c-1.62-17.34-.28-34.72-.77-52.07-.07-2.31.89-3,3.07-2.94,6.77.09,13.55.17,20.31,0,3-.09,3.84.9,3.81,3.85-.13,14.47.08,28.94-.15,43.4-.07,4,1.2,5,4.95,4.76,6.09-.3,12.22,0,18.32-.12,2.42-.05,3.3.77,3.22,3.21-.14,4.51-.05,9-.05,13.54q0,29.14,0,58.29c-8.17,1.29-16.39.34-24.58.52-2.59.06-1.81-2.18-1.81-3.59,0-13.81-.08-27.63,0-41.45C389.93,349.68,389.52,348.34,386.72,349.49Z"/><path class="cls-3" d="M416.29,396.7q0-29.15,0-58.29c15.66-9.47,24.89-23,26.38-41.49a16.63,16.63,0,0,1,.51-2.28c0,2.92.12,5.84.12,8.75,0,29.64,0,59.27.08,88.91,0,3.37-.64,4.68-4.34,4.53C431.46,396.52,423.87,396.71,416.29,396.7Z"/><text class="cls-4" transform="matrix(0.78, -0.63, 0.63, 0.78, 236.56, 247.25)">G</text><text class="cls-5" transform="translate(271.23 222.49) rotate(-23.78)">P</text><text class="cls-6" transform="translate(304.86 208.88) rotate(-11.56)">F</text><circle class="cls-7" cx="306.28" cy="306.28" r="300.78"/></g></g></svg>